<!-- Generated by IcoMoon.io -->
<svg version="1.1" xmlns="http://www.w3.org/2000/svg" width="32" height="32" viewBox="0 0 32 32">
<title>clipboard-edit</title>
<path d="M26.443 13.15l-2.6-2.6-11.292 11.294 2.606 2.606 11.286-11.3zM27.15 12.443l1.729-1.731c0.39-0.39 0.387-1.025-0.005-1.416l-1.18-1.177c-0.393-0.392-1.025-0.395-1.417-0.003l-1.727 1.728 2.599 2.599zM11.904 22.611l-0.64 3.113 3.135-0.617-2.495-2.495zM22 19v9.996c0 1.114-0.894 2.004-1.997 2.004h-15.005c-1.107 0-1.997-0.897-1.997-2.004v-20.993c0-1.114 0.894-2.004 1.997-2.004h1.003c0.003-1.109 0.898-2 2.003-2h0.997c0.001-1.662 1.348-3 3.009-3h0.982c1.659 0 3.008 1.343 3.009 3h0.997c1.108 0 2 0.895 2.003 2v0h1.003c1.107 0 1.997 0.897 1.997 2.004v2.996l3.58-3.58c0.793-0.793 2.051-0.788 2.83-0.010l1.18 1.179c0.776 0.776 0.775 2.046-0.010 2.83l-7.58 7.58zM21 12v-3.997c0-0.554-0.455-1.003-1-1.003h-1c-0.003 1.109-0.898 2-2.003 2h-8.994c-1.108 0-2-0.895-2.003-2h-1c-0.552 0-1 0.439-1 1.003v20.994c0 0.554 0.455 1.003 1 1.003h15c0.552 0 1-0.439 1-1.003v-8.997l-6 6-5 1 1-5 10-10zM10 5h-2.004c-0.55 0-0.996 0.443-0.996 0.999v1.002c0 0.552 0.445 0.999 0.996 0.999h9.009c0.55 0 0.996-0.443 0.996-0.999v-1.002c0-0.552-0.445-0.999-0.996-0.999h-2.004v-1.002c0-1.103-0.894-1.998-2.005-1.998h-0.99c-1.107 0-2.005 0.898-2.005 1.998v1.002zM12.5 5c0.276 0 0.5-0.224 0.5-0.5s-0.224-0.5-0.5-0.5c-0.276 0-0.5 0.224-0.5 0.5s0.224 0.5 0.5 0.5v0 0z"></path>
</svg>
