<!-- Generated by IcoMoon.io -->
<svg version="1.1" xmlns="http://www.w3.org/2000/svg" width="24" height="28" viewBox="0 0 24 28">
<title>hourglass</title>
<path d="M23.5 25c0.281 0 0.5 0.219 0.5 0.5v2c0 0.281-0.219 0.5-0.5 0.5h-23c-0.281 0-0.5-0.219-0.5-0.5v-2c0-0.281 0.219-0.5 0.5-0.5h23zM2.031 24c0.297-5.266 4.594-8.094 7.469-10-2.875-1.906-7.172-4.734-7.469-10h19.938c-0.297 5.266-4.594 8.094-7.469 10 2.875 1.906 7.172 4.734 7.469 10h-19.938zM23.5 0c0.281 0 0.5 0.219 0.5 0.5v2c0 0.281-0.219 0.5-0.5 0.5h-23c-0.281 0-0.5-0.219-0.5-0.5v-2c0-0.281 0.219-0.5 0.5-0.5h23z"></path>
</svg>
