<!-- Generated by IcoMoon.io -->
<svg version="1.1" xmlns="http://www.w3.org/2000/svg" width="24" height="28" viewBox="0 0 24 28">
<title>pencil-square</title>
<path d="M6.312 17.313l2.375 2.375-0.812 0.812h-0.875v-1.5h-1.5v-0.875zM12.781 11.219c0.125 0.109 0.094 0.328-0.047 0.469l-4.547 4.547c-0.141 0.141-0.359 0.172-0.469 0.047-0.125-0.109-0.094-0.328 0.047-0.469l4.547-4.547c0.141-0.141 0.359-0.172 0.469-0.047zM8.5 22l8.5-8.5-4.5-4.5-8.5 8.5v4.5h4.5zM18 12.5l1.437-1.437c0.578-0.578 0.578-1.547 0-2.125l-2.375-2.375c-0.578-0.578-1.547-0.578-2.125 0l-1.437 1.437zM24 6.5v15c0 2.484-2.016 4.5-4.5 4.5h-15c-2.484 0-4.5-2.016-4.5-4.5v-15c0-2.484 2.016-4.5 4.5-4.5h15c2.484 0 4.5 2.016 4.5 4.5z"></path>
</svg>
