<!-- Generated by IcoMoon.io -->
<svg version="1.1" xmlns="http://www.w3.org/2000/svg" width="28" height="28" viewBox="0 0 28 28" fill="#49bf4c">
<title>spinner</title>
<path d="M8.219 21.781c0 1.094-0.891 2-2 2-1.094 0-2-0.906-2-2 0-1.109 0.906-2 2-2 1.109 0 2 0.891 2 2zM16 25c0 1.109-0.891 2-2 2s-2-0.891-2-2 0.891-2 2-2 2 0.891 2 2zM5 14c0 1.109-0.891 2-2 2s-2-0.891-2-2 0.891-2 2-2 2 0.891 2 2zM23.781 21.781c0 1.094-0.906 2-2 2-1.109 0-2-0.906-2-2 0-1.109 0.891-2 2-2 1.094 0 2 0.891 2 2zM8.719 6.219c0 1.375-1.125 2.5-2.5 2.5s-2.5-1.125-2.5-2.5 1.125-2.5 2.5-2.5 2.5 1.125 2.5 2.5zM27 14c0 1.109-0.891 2-2 2s-2-0.891-2-2 0.891-2 2-2 2 0.891 2 2zM17 3c0 1.656-1.344 3-3 3s-3-1.344-3-3 1.344-3 3-3 3 1.344 3 3zM25.281 6.219c0 1.937-1.578 3.5-3.5 3.5-1.937 0-3.5-1.563-3.5-3.5 0-1.922 1.563-3.5 3.5-3.5 1.922 0 3.5 1.578 3.5 3.5z"></path>
</svg>
