<svg aria-hidden="true" style="position: absolute; width: 0; height: 0; overflow: hidden;" version="1.1" xmlns="http://www.w3.org/2000/svg" xmlns:xlink="http://www.w3.org/1999/xlink">
<defs>
<symbol id="icon-search" viewBox="0 0 26 28">
<title>search</title>
<path d="M18 13c0-3.859-3.141-7-7-7s-7 3.141-7 7 3.141 7 7 7 7-3.141 7-7zM26 26c0 1.094-0.906 2-2 2-0.531 0-1.047-0.219-1.406-0.594l-5.359-5.344c-1.828 1.266-4.016 1.937-6.234 1.937-6.078 0-11-4.922-11-11s4.922-11 11-11 11 4.922 11 11c0 2.219-0.672 4.406-1.937 6.234l5.359 5.359c0.359 0.359 0.578 0.875 0.578 1.406z"></path>
</symbol>
<symbol id="icon-user-plus" viewBox="0 0 32 28">
<title>user-plus</title>
<path d="M11 14c-3.313 0-6-2.688-6-6s2.688-6 6-6 6 2.688 6 6-2.688 6-6 6zM26 16h5.5c0.266 0 0.5 0.234 0.5 0.5v3c0 0.266-0.234 0.5-0.5 0.5h-5.5v5.5c0 0.266-0.234 0.5-0.5 0.5h-3c-0.266 0-0.5-0.234-0.5-0.5v-5.5h-5.5c-0.266 0-0.5-0.234-0.5-0.5v-3c0-0.266 0.234-0.5 0.5-0.5h5.5v-5.5c0-0.266 0.234-0.5 0.5-0.5h3c0.266 0 0.5 0.234 0.5 0.5v5.5zM14.5 19.5c0 1.094 0.906 2 2 2h4v3.719c-0.766 0.562-1.734 0.781-2.672 0.781h-13.656c-2.5 0-4.172-1.5-4.172-4.047 0-3.531 0.828-8.953 5.406-8.953 0.25 0 0.422 0.109 0.609 0.266 1.531 1.172 3.016 1.906 4.984 1.906s3.453-0.734 4.984-1.906c0.187-0.156 0.359-0.266 0.609-0.266 1.328 0 2.5 0.5 3.391 1.5h-3.484c-1.094 0-2 0.906-2 2v3z"></path>
</symbol>
<symbol id="icon-pencil-square" viewBox="0 0 24 28">
<title>pencil-square</title>
<path d="M6.312 17.313l2.375 2.375-0.812 0.812h-0.875v-1.5h-1.5v-0.875zM12.781 11.219c0.125 0.109 0.094 0.328-0.047 0.469l-4.547 4.547c-0.141 0.141-0.359 0.172-0.469 0.047-0.125-0.109-0.094-0.328 0.047-0.469l4.547-4.547c0.141-0.141 0.359-0.172 0.469-0.047zM8.5 22l8.5-8.5-4.5-4.5-8.5 8.5v4.5h4.5zM18 12.5l1.437-1.437c0.578-0.578 0.578-1.547 0-2.125l-2.375-2.375c-0.578-0.578-1.547-0.578-2.125 0l-1.437 1.437zM24 6.5v15c0 2.484-2.016 4.5-4.5 4.5h-15c-2.484 0-4.5-2.016-4.5-4.5v-15c0-2.484 2.016-4.5 4.5-4.5h15c2.484 0 4.5 2.016 4.5 4.5z"></path>
</symbol>
<symbol id="icon-edit" viewBox="0 0 28 28">
<title>edit</title>
<path d="M13.875 18.5l1.813-1.813-2.375-2.375-1.813 1.813v0.875h1.5v1.5h0.875zM20.75 7.25c-0.141-0.141-0.375-0.125-0.516 0.016l-5.469 5.469c-0.141 0.141-0.156 0.375-0.016 0.516s0.375 0.125 0.516-0.016l5.469-5.469c0.141-0.141 0.156-0.375 0.016-0.516zM22 16.531v2.969c0 2.484-2.016 4.5-4.5 4.5h-13c-2.484 0-4.5-2.016-4.5-4.5v-13c0-2.484 2.016-4.5 4.5-4.5h13c0.625 0 1.25 0.125 1.828 0.391 0.141 0.063 0.25 0.203 0.281 0.359 0.031 0.172-0.016 0.328-0.141 0.453l-0.766 0.766c-0.141 0.141-0.328 0.187-0.5 0.125-0.234-0.063-0.469-0.094-0.703-0.094h-13c-1.375 0-2.5 1.125-2.5 2.5v13c0 1.375 1.125 2.5 2.5 2.5h13c1.375 0 2.5-1.125 2.5-2.5v-1.969c0-0.125 0.047-0.25 0.141-0.344l1-1c0.156-0.156 0.359-0.187 0.547-0.109s0.313 0.25 0.313 0.453zM20.5 5l4.5 4.5-10.5 10.5h-4.5v-4.5zM27.438 7.063l-1.437 1.437-4.5-4.5 1.437-1.437c0.578-0.578 1.547-0.578 2.125 0l2.375 2.375c0.578 0.578 0.578 1.547 0 2.125z"></path>
</symbol>
<symbol id="icon-check-circle" viewBox="0 0 24 28">
<title>check-circle</title>
<path d="M20.062 11.469c0-0.266-0.094-0.531-0.281-0.719l-1.422-1.406c-0.187-0.187-0.438-0.297-0.703-0.297s-0.516 0.109-0.703 0.297l-6.375 6.359-3.531-3.531c-0.187-0.187-0.438-0.297-0.703-0.297s-0.516 0.109-0.703 0.297l-1.422 1.406c-0.187 0.187-0.281 0.453-0.281 0.719s0.094 0.516 0.281 0.703l5.656 5.656c0.187 0.187 0.453 0.297 0.703 0.297 0.266 0 0.531-0.109 0.719-0.297l8.484-8.484c0.187-0.187 0.281-0.438 0.281-0.703zM24 14c0 6.625-5.375 12-12 12s-12-5.375-12-12 5.375-12 12-12 12 5.375 12 12z"></path>
</symbol>
<symbol id="icon-filter" viewBox="0 0 22 28">
<title>filter</title>
<path d="M21.922 4.609c0.156 0.375 0.078 0.812-0.219 1.094l-7.703 7.703v11.594c0 0.406-0.25 0.766-0.609 0.922-0.125 0.047-0.266 0.078-0.391 0.078-0.266 0-0.516-0.094-0.703-0.297l-4-4c-0.187-0.187-0.297-0.438-0.297-0.703v-7.594l-7.703-7.703c-0.297-0.281-0.375-0.719-0.219-1.094 0.156-0.359 0.516-0.609 0.922-0.609h20c0.406 0 0.766 0.25 0.922 0.609z"></path>
</symbol>
<symbol id="icon-paper-plane" viewBox="0 0 28 28">
<title>paper-plane</title>
<path d="M27.563 0.172c0.328 0.234 0.484 0.609 0.422 1l-4 24c-0.047 0.297-0.234 0.547-0.5 0.703-0.141 0.078-0.313 0.125-0.484 0.125-0.125 0-0.25-0.031-0.375-0.078l-7.078-2.891-3.781 4.609c-0.187 0.234-0.469 0.359-0.766 0.359-0.109 0-0.234-0.016-0.344-0.063-0.391-0.141-0.656-0.516-0.656-0.938v-5.453l13.5-16.547-16.703 14.453-6.172-2.531c-0.359-0.141-0.594-0.469-0.625-0.859-0.016-0.375 0.172-0.734 0.5-0.922l26-15c0.156-0.094 0.328-0.141 0.5-0.141 0.203 0 0.406 0.063 0.562 0.172z"></path>
</symbol>
<symbol id="icon-envelope" viewBox="0 0 28 28">
<title>envelope</title>
<path d="M28 11.094v12.406c0 1.375-1.125 2.5-2.5 2.5h-23c-1.375 0-2.5-1.125-2.5-2.5v-12.406c0.469 0.516 1 0.969 1.578 1.359 2.594 1.766 5.219 3.531 7.766 5.391 1.313 0.969 2.938 2.156 4.641 2.156h0.031c1.703 0 3.328-1.188 4.641-2.156 2.547-1.844 5.172-3.625 7.781-5.391 0.562-0.391 1.094-0.844 1.563-1.359zM28 6.5c0 1.75-1.297 3.328-2.672 4.281-2.438 1.687-4.891 3.375-7.313 5.078-1.016 0.703-2.734 2.141-4 2.141h-0.031c-1.266 0-2.984-1.437-4-2.141-2.422-1.703-4.875-3.391-7.297-5.078-1.109-0.75-2.688-2.516-2.688-3.938 0-1.531 0.828-2.844 2.5-2.844h23c1.359 0 2.5 1.125 2.5 2.5z"></path>
</symbol>
<symbol id="icon-external-link" viewBox="0 0 28 28">
<title>external-link</title>
<path d="M22 14.5v5c0 2.484-2.016 4.5-4.5 4.5h-13c-2.484 0-4.5-2.016-4.5-4.5v-13c0-2.484 2.016-4.5 4.5-4.5h11c0.281 0 0.5 0.219 0.5 0.5v1c0 0.281-0.219 0.5-0.5 0.5h-11c-1.375 0-2.5 1.125-2.5 2.5v13c0 1.375 1.125 2.5 2.5 2.5h13c1.375 0 2.5-1.125 2.5-2.5v-5c0-0.281 0.219-0.5 0.5-0.5h1c0.281 0 0.5 0.219 0.5 0.5zM28 1v8c0 0.547-0.453 1-1 1-0.266 0-0.516-0.109-0.703-0.297l-2.75-2.75-10.187 10.187c-0.094 0.094-0.234 0.156-0.359 0.156s-0.266-0.063-0.359-0.156l-1.781-1.781c-0.094-0.094-0.156-0.234-0.156-0.359s0.063-0.266 0.156-0.359l10.187-10.187-2.75-2.75c-0.187-0.187-0.297-0.438-0.297-0.703 0-0.547 0.453-1 1-1h8c0.547 0 1 0.453 1 1z"></path>
</symbol>
<symbol id="icon-chain" viewBox="0 0 26 28">
<title>chain</title>
<path d="M22.75 19c0-0.406-0.156-0.781-0.438-1.062l-3.25-3.25c-0.281-0.281-0.672-0.438-1.062-0.438-0.453 0-0.812 0.172-1.125 0.5 0.516 0.516 1.125 0.953 1.125 1.75 0 0.828-0.672 1.5-1.5 1.5-0.797 0-1.234-0.609-1.75-1.125-0.328 0.313-0.516 0.672-0.516 1.141 0 0.391 0.156 0.781 0.438 1.062l3.219 3.234c0.281 0.281 0.672 0.422 1.062 0.422s0.781-0.141 1.062-0.406l2.297-2.281c0.281-0.281 0.438-0.656 0.438-1.047zM11.766 7.984c0-0.391-0.156-0.781-0.438-1.062l-3.219-3.234c-0.281-0.281-0.672-0.438-1.062-0.438s-0.781 0.156-1.062 0.422l-2.297 2.281c-0.281 0.281-0.438 0.656-0.438 1.047 0 0.406 0.156 0.781 0.438 1.062l3.25 3.25c0.281 0.281 0.672 0.422 1.062 0.422 0.453 0 0.812-0.156 1.125-0.484-0.516-0.516-1.125-0.953-1.125-1.75 0-0.828 0.672-1.5 1.5-1.5 0.797 0 1.234 0.609 1.75 1.125 0.328-0.313 0.516-0.672 0.516-1.141zM25.75 19c0 1.188-0.484 2.344-1.328 3.172l-2.297 2.281c-0.844 0.844-1.984 1.297-3.172 1.297-1.203 0-2.344-0.469-3.187-1.328l-3.219-3.234c-0.844-0.844-1.297-1.984-1.297-3.172 0-1.234 0.5-2.406 1.375-3.266l-1.375-1.375c-0.859 0.875-2.016 1.375-3.25 1.375-1.188 0-2.344-0.469-3.187-1.313l-3.25-3.25c-0.859-0.859-1.313-1.984-1.313-3.187 0-1.188 0.484-2.344 1.328-3.172l2.297-2.281c0.844-0.844 1.984-1.297 3.172-1.297 1.203 0 2.344 0.469 3.187 1.328l3.219 3.234c0.844 0.844 1.297 1.984 1.297 3.172 0 1.234-0.5 2.406-1.375 3.266l1.375 1.375c0.859-0.875 2.016-1.375 3.25-1.375 1.188 0 2.344 0.469 3.187 1.313l3.25 3.25c0.859 0.859 1.313 1.984 1.313 3.187z"></path>
</symbol>
<symbol id="icon-calendar-check-o" viewBox="0 0 26 28">
<title>calendar-check-o</title>
<path d="M20.359 15.062l-8 8c-0.203 0.187-0.516 0.187-0.719 0l-4.5-4.5c-0.187-0.203-0.187-0.516 0-0.703l0.719-0.719c0.187-0.187 0.5-0.187 0.703 0l3.437 3.437 6.937-6.937c0.203-0.187 0.516-0.187 0.703 0l0.719 0.719c0.187 0.187 0.187 0.5 0 0.703zM2 26h22v-16h-22v16zM8 7v-4.5c0-0.281-0.219-0.5-0.5-0.5h-1c-0.281 0-0.5 0.219-0.5 0.5v4.5c0 0.281 0.219 0.5 0.5 0.5h1c0.281 0 0.5-0.219 0.5-0.5zM20 7v-4.5c0-0.281-0.219-0.5-0.5-0.5h-1c-0.281 0-0.5 0.219-0.5 0.5v4.5c0 0.281 0.219 0.5 0.5 0.5h1c0.281 0 0.5-0.219 0.5-0.5zM26 6v20c0 1.094-0.906 2-2 2h-22c-1.094 0-2-0.906-2-2v-20c0-1.094 0.906-2 2-2h2v-1.5c0-1.375 1.125-2.5 2.5-2.5h1c1.375 0 2.5 1.125 2.5 2.5v1.5h6v-1.5c0-1.375 1.125-2.5 2.5-2.5h1c1.375 0 2.5 1.125 2.5 2.5v1.5h2c1.094 0 2 0.906 2 2z"></path>
</symbol>
<symbol id="icon-check" viewBox="0 0 28 28">
<title>check</title>
<path d="M26.109 8.844c0 0.391-0.156 0.781-0.438 1.062l-13.438 13.438c-0.281 0.281-0.672 0.438-1.062 0.438s-0.781-0.156-1.062-0.438l-7.781-7.781c-0.281-0.281-0.438-0.672-0.438-1.062s0.156-0.781 0.438-1.062l2.125-2.125c0.281-0.281 0.672-0.438 1.062-0.438s0.781 0.156 1.062 0.438l4.594 4.609 10.25-10.266c0.281-0.281 0.672-0.438 1.062-0.438s0.781 0.156 1.062 0.438l2.125 2.125c0.281 0.281 0.438 0.672 0.438 1.062z"></path>
</symbol>
<symbol id="icon-sign-in" viewBox="0 0 24 28">
<title>sign-in</title>
<path d="M18.5 14c0 0.266-0.109 0.516-0.297 0.703l-8.5 8.5c-0.187 0.187-0.438 0.297-0.703 0.297-0.547 0-1-0.453-1-1v-4.5h-7c-0.547 0-1-0.453-1-1v-6c0-0.547 0.453-1 1-1h7v-4.5c0-0.547 0.453-1 1-1 0.266 0 0.516 0.109 0.703 0.297l8.5 8.5c0.187 0.187 0.297 0.438 0.297 0.703zM24 8.5v11c0 2.484-2.016 4.5-4.5 4.5h-5c-0.266 0-0.5-0.234-0.5-0.5 0-0.438-0.203-1.5 0.5-1.5h5c1.375 0 2.5-1.125 2.5-2.5v-11c0-1.375-1.125-2.5-2.5-2.5h-4.5c-0.391 0-1 0.078-1-0.5 0-0.438-0.203-1.5 0.5-1.5h5c2.484 0 4.5 2.016 4.5 4.5z"></path>
</symbol>
<symbol id="icon-question-circle" viewBox="0 0 24 28">
<title>question-circle</title>
<path d="M14 21.5v-3c0-0.281-0.219-0.5-0.5-0.5h-3c-0.281 0-0.5 0.219-0.5 0.5v3c0 0.281 0.219 0.5 0.5 0.5h3c0.281 0 0.5-0.219 0.5-0.5zM18 11c0-2.859-3-5-5.688-5-2.547 0-4.453 1.094-5.797 3.328-0.141 0.219-0.078 0.5 0.125 0.656l2.063 1.563c0.078 0.063 0.187 0.094 0.297 0.094 0.141 0 0.297-0.063 0.391-0.187 0.734-0.938 1.047-1.219 1.344-1.437 0.266-0.187 0.781-0.375 1.344-0.375 1 0 1.922 0.641 1.922 1.328 0 0.812-0.422 1.219-1.375 1.656-1.109 0.5-2.625 1.797-2.625 3.313v0.562c0 0.281 0.219 0.5 0.5 0.5h3c0.281 0 0.5-0.219 0.5-0.5v0c0-0.359 0.453-1.125 1.188-1.547 1.188-0.672 2.812-1.578 2.812-3.953zM24 14c0 6.625-5.375 12-12 12s-12-5.375-12-12 5.375-12 12-12 12 5.375 12 12z"></path>
</symbol>
<symbol id="icon-sign-out" viewBox="0 0 25 28">
<title>sign-out</title>
<path d="M10 22.5c0 0.438 0.203 1.5-0.5 1.5h-5c-2.484 0-4.5-2.016-4.5-4.5v-11c0-2.484 2.016-4.5 4.5-4.5h5c0.266 0 0.5 0.234 0.5 0.5 0 0.438 0.203 1.5-0.5 1.5h-5c-1.375 0-2.5 1.125-2.5 2.5v11c0 1.375 1.125 2.5 2.5 2.5h4.5c0.391 0 1-0.078 1 0.5zM24.5 14c0 0.266-0.109 0.516-0.297 0.703l-8.5 8.5c-0.187 0.187-0.438 0.297-0.703 0.297-0.547 0-1-0.453-1-1v-4.5h-7c-0.547 0-1-0.453-1-1v-6c0-0.547 0.453-1 1-1h7v-4.5c0-0.547 0.453-1 1-1 0.266 0 0.516 0.109 0.703 0.297l8.5 8.5c0.187 0.187 0.297 0.438 0.297 0.703z"></path>
</symbol>
<symbol id="icon-bookmark" viewBox="0 0 20 28">
<title>bookmark</title>
<path d="M18.188 2c0.234 0 0.469 0.047 0.688 0.141 0.688 0.266 1.125 0.906 1.125 1.609v20.141c0 0.703-0.438 1.344-1.125 1.609-0.219 0.094-0.453 0.125-0.688 0.125-0.484 0-0.938-0.172-1.297-0.5l-6.891-6.625-6.891 6.625c-0.359 0.328-0.812 0.516-1.297 0.516-0.234 0-0.469-0.047-0.688-0.141-0.688-0.266-1.125-0.906-1.125-1.609v-20.141c0-0.703 0.438-1.344 1.125-1.609 0.219-0.094 0.453-0.141 0.688-0.141h16.375z"></path>
</symbol>
<symbol id="icon-user" viewBox="0 0 20 28">
<title>user</title>
<path d="M20 21.859c0 2.281-1.5 4.141-3.328 4.141h-13.344c-1.828 0-3.328-1.859-3.328-4.141 0-4.109 1.016-8.859 5.109-8.859 1.266 1.234 2.984 2 4.891 2s3.625-0.766 4.891-2c4.094 0 5.109 4.75 5.109 8.859zM16 8c0 3.313-2.688 6-6 6s-6-2.688-6-6 2.688-6 6-6 6 2.688 6 6z"></path>
</symbol>
<symbol id="icon-cogs" viewBox="0 0 30 28">
<title>cogs</title>
<path d="M14 14c0-2.203-1.797-4-4-4s-4 1.797-4 4 1.797 4 4 4 4-1.797 4-4zM26 22c0-1.094-0.906-2-2-2s-2 0.906-2 2c0 1.109 0.906 2 2 2 1.109 0 2-0.906 2-2zM26 6c0-1.094-0.906-2-2-2s-2 0.906-2 2c0 1.109 0.906 2 2 2 1.109 0 2-0.906 2-2zM20 12.578v2.891c0 0.203-0.156 0.438-0.359 0.469l-2.422 0.375c-0.125 0.406-0.297 0.797-0.5 1.188 0.438 0.625 0.906 1.203 1.406 1.797 0.063 0.094 0.109 0.187 0.109 0.313 0 0.109-0.031 0.219-0.109 0.297-0.313 0.422-2.063 2.328-2.516 2.328-0.125 0-0.234-0.047-0.328-0.109l-1.797-1.406c-0.391 0.203-0.781 0.359-1.203 0.484-0.078 0.797-0.156 1.656-0.359 2.422-0.063 0.219-0.25 0.375-0.469 0.375h-2.906c-0.219 0-0.438-0.172-0.469-0.391l-0.359-2.391c-0.406-0.125-0.797-0.297-1.172-0.484l-1.844 1.391c-0.078 0.078-0.203 0.109-0.313 0.109-0.125 0-0.234-0.047-0.328-0.125-0.406-0.375-2.25-2.047-2.25-2.5 0-0.109 0.047-0.203 0.109-0.297 0.453-0.594 0.922-1.172 1.375-1.781-0.219-0.422-0.406-0.844-0.547-1.281l-2.375-0.375c-0.219-0.031-0.375-0.234-0.375-0.453v-2.891c0-0.203 0.156-0.438 0.359-0.469l2.422-0.375c0.125-0.406 0.297-0.797 0.5-1.188-0.438-0.625-0.906-1.203-1.406-1.797-0.063-0.094-0.109-0.203-0.109-0.313s0.031-0.219 0.109-0.313c0.313-0.422 2.063-2.312 2.516-2.312 0.125 0 0.234 0.047 0.328 0.109l1.797 1.406c0.391-0.203 0.781-0.359 1.203-0.5 0.078-0.781 0.156-1.641 0.359-2.406 0.063-0.219 0.25-0.375 0.469-0.375h2.906c0.219 0 0.438 0.172 0.469 0.391l0.359 2.391c0.406 0.125 0.797 0.297 1.172 0.484l1.844-1.391c0.094-0.078 0.203-0.109 0.313-0.109 0.125 0 0.234 0.047 0.328 0.125 0.406 0.375 2.25 2.063 2.25 2.5 0 0.109-0.047 0.203-0.109 0.297-0.453 0.609-0.922 1.172-1.359 1.781 0.203 0.422 0.391 0.844 0.531 1.281l2.375 0.359c0.219 0.047 0.375 0.25 0.375 0.469zM30 20.906v2.188c0 0.234-2.016 0.453-2.328 0.484-0.125 0.297-0.281 0.562-0.469 0.812 0.141 0.313 0.797 1.875 0.797 2.156 0 0.047-0.016 0.078-0.063 0.109-0.187 0.109-1.859 1.109-1.937 1.109-0.203 0-1.375-1.563-1.531-1.797-0.156 0.016-0.313 0.031-0.469 0.031s-0.313-0.016-0.469-0.031c-0.156 0.234-1.328 1.797-1.531 1.797-0.078 0-1.75-1-1.937-1.109-0.047-0.031-0.063-0.078-0.063-0.109 0-0.266 0.656-1.844 0.797-2.156-0.187-0.25-0.344-0.516-0.469-0.812-0.313-0.031-2.328-0.25-2.328-0.484v-2.188c0-0.234 2.016-0.453 2.328-0.484 0.125-0.281 0.281-0.562 0.469-0.812-0.141-0.313-0.797-1.891-0.797-2.156 0-0.031 0.016-0.078 0.063-0.109 0.187-0.094 1.859-1.094 1.937-1.094 0.203 0 1.375 1.547 1.531 1.781 0.156-0.016 0.313-0.031 0.469-0.031s0.313 0.016 0.469 0.031c0.438-0.609 0.906-1.219 1.437-1.75l0.094-0.031c0.078 0 1.75 0.984 1.937 1.094 0.047 0.031 0.063 0.078 0.063 0.109 0 0.281-0.656 1.844-0.797 2.156 0.187 0.25 0.344 0.531 0.469 0.812 0.313 0.031 2.328 0.25 2.328 0.484zM30 4.906v2.187c0 0.234-2.016 0.453-2.328 0.484-0.125 0.297-0.281 0.562-0.469 0.812 0.141 0.313 0.797 1.875 0.797 2.156 0 0.047-0.016 0.078-0.063 0.109-0.187 0.109-1.859 1.109-1.937 1.109-0.203 0-1.375-1.563-1.531-1.797-0.156 0.016-0.313 0.031-0.469 0.031s-0.313-0.016-0.469-0.031c-0.156 0.234-1.328 1.797-1.531 1.797-0.078 0-1.75-1-1.937-1.109-0.047-0.031-0.063-0.078-0.063-0.109 0-0.266 0.656-1.844 0.797-2.156-0.187-0.25-0.344-0.516-0.469-0.812-0.313-0.031-2.328-0.25-2.328-0.484v-2.188c0-0.234 2.016-0.453 2.328-0.484 0.125-0.281 0.281-0.562 0.469-0.812-0.141-0.313-0.797-1.891-0.797-2.156 0-0.031 0.016-0.078 0.063-0.109 0.187-0.094 1.859-1.094 1.937-1.094 0.203 0 1.375 1.547 1.531 1.781 0.156-0.016 0.313-0.031 0.469-0.031s0.313 0.016 0.469 0.031c0.438-0.609 0.906-1.219 1.437-1.75l0.094-0.031c0.078 0 1.75 0.984 1.937 1.094 0.047 0.031 0.063 0.078 0.063 0.109 0 0.281-0.656 1.844-0.797 2.156 0.187 0.25 0.344 0.531 0.469 0.812 0.313 0.031 2.328 0.25 2.328 0.484z"></path>
</symbol>
<symbol id="icon-hourglass" viewBox="0 0 24 28">
<title>hourglass</title>
<path d="M23.5 25c0.281 0 0.5 0.219 0.5 0.5v2c0 0.281-0.219 0.5-0.5 0.5h-23c-0.281 0-0.5-0.219-0.5-0.5v-2c0-0.281 0.219-0.5 0.5-0.5h23zM2.031 24c0.297-5.266 4.594-8.094 7.469-10-2.875-1.906-7.172-4.734-7.469-10h19.938c-0.297 5.266-4.594 8.094-7.469 10 2.875 1.906 7.172 4.734 7.469 10h-19.938zM23.5 0c0.281 0 0.5 0.219 0.5 0.5v2c0 0.281-0.219 0.5-0.5 0.5h-23c-0.281 0-0.5-0.219-0.5-0.5v-2c0-0.281 0.219-0.5 0.5-0.5h23z"></path>
</symbol>
<symbol id="icon-pencil" viewBox="0 0 24 28">
<title>pencil</title>
<path d="M5.672 24l1.422-1.422-3.672-3.672-1.422 1.422v1.672h2v2h1.672zM13.844 9.5c0-0.203-0.141-0.344-0.344-0.344-0.094 0-0.187 0.031-0.266 0.109l-8.469 8.469c-0.078 0.078-0.109 0.172-0.109 0.266 0 0.203 0.141 0.344 0.344 0.344 0.094 0 0.187-0.031 0.266-0.109l8.469-8.469c0.078-0.078 0.109-0.172 0.109-0.266zM13 6.5l6.5 6.5-13 13h-6.5v-6.5zM23.672 8c0 0.531-0.219 1.047-0.578 1.406l-2.594 2.594-6.5-6.5 2.594-2.578c0.359-0.375 0.875-0.594 1.406-0.594s1.047 0.219 1.422 0.594l3.672 3.656c0.359 0.375 0.578 0.891 0.578 1.422z"></path>
</symbol>
<symbol id="icon-trash" viewBox="0 0 22 28">
<title>trash</title>
<path d="M8 21.5v-11c0-0.281-0.219-0.5-0.5-0.5h-1c-0.281 0-0.5 0.219-0.5 0.5v11c0 0.281 0.219 0.5 0.5 0.5h1c0.281 0 0.5-0.219 0.5-0.5zM12 21.5v-11c0-0.281-0.219-0.5-0.5-0.5h-1c-0.281 0-0.5 0.219-0.5 0.5v11c0 0.281 0.219 0.5 0.5 0.5h1c0.281 0 0.5-0.219 0.5-0.5zM16 21.5v-11c0-0.281-0.219-0.5-0.5-0.5h-1c-0.281 0-0.5 0.219-0.5 0.5v11c0 0.281 0.219 0.5 0.5 0.5h1c0.281 0 0.5-0.219 0.5-0.5zM7.5 6h7l-0.75-1.828c-0.047-0.063-0.187-0.156-0.266-0.172h-4.953c-0.094 0.016-0.219 0.109-0.266 0.172zM22 6.5v1c0 0.281-0.219 0.5-0.5 0.5h-1.5v14.812c0 1.719-1.125 3.187-2.5 3.187h-13c-1.375 0-2.5-1.406-2.5-3.125v-14.875h-1.5c-0.281 0-0.5-0.219-0.5-0.5v-1c0-0.281 0.219-0.5 0.5-0.5h4.828l1.094-2.609c0.313-0.766 1.25-1.391 2.078-1.391h5c0.828 0 1.766 0.625 2.078 1.391l1.094 2.609h4.828c0.281 0 0.5 0.219 0.5 0.5z"></path>
</symbol>
<symbol id="icon-group" viewBox="0 0 30 28">
<title>group</title>
<path d="M9.266 14c-1.625 0.047-3.094 0.75-4.141 2h-2.094c-1.563 0-3.031-0.75-3.031-2.484 0-1.266-0.047-5.516 1.937-5.516 0.328 0 1.953 1.328 4.062 1.328 0.719 0 1.406-0.125 2.078-0.359-0.047 0.344-0.078 0.688-0.078 1.031 0 1.422 0.453 2.828 1.266 4zM26 23.953c0 2.531-1.672 4.047-4.172 4.047h-13.656c-2.5 0-4.172-1.516-4.172-4.047 0-3.531 0.828-8.953 5.406-8.953 0.531 0 2.469 2.172 5.594 2.172s5.063-2.172 5.594-2.172c4.578 0 5.406 5.422 5.406 8.953zM10 4c0 2.203-1.797 4-4 4s-4-1.797-4-4 1.797-4 4-4 4 1.797 4 4zM21 10c0 3.313-2.688 6-6 6s-6-2.688-6-6 2.688-6 6-6 6 2.688 6 6zM30 13.516c0 1.734-1.469 2.484-3.031 2.484h-2.094c-1.047-1.25-2.516-1.953-4.141-2 0.812-1.172 1.266-2.578 1.266-4 0-0.344-0.031-0.688-0.078-1.031 0.672 0.234 1.359 0.359 2.078 0.359 2.109 0 3.734-1.328 4.062-1.328 1.984 0 1.937 4.25 1.937 5.516zM28 4c0 2.203-1.797 4-4 4s-4-1.797-4-4 1.797-4 4-4 4 1.797 4 4z"></path>
</symbol>
<symbol id="icon-cloud-upload" viewBox="0 0 30 28">
<title>cloud-upload</title>
<path d="M20 13.5c0-0.125-0.047-0.266-0.141-0.359l-5.5-5.5c-0.094-0.094-0.219-0.141-0.359-0.141-0.125 0-0.266 0.047-0.359 0.141l-5.484 5.484c-0.094 0.109-0.156 0.234-0.156 0.375 0 0.281 0.219 0.5 0.5 0.5h3.5v5.5c0 0.266 0.234 0.5 0.5 0.5h3c0.266 0 0.5-0.234 0.5-0.5v-5.5h3.5c0.281 0 0.5-0.234 0.5-0.5zM30 18c0 3.313-2.688 6-6 6h-17c-3.859 0-7-3.141-7-7 0-2.719 1.578-5.187 4.031-6.328-0.016-0.234-0.031-0.453-0.031-0.672 0-4.422 3.578-8 8-8 3.25 0 6.172 1.969 7.406 4.969 0.719-0.625 1.641-0.969 2.594-0.969 2.203 0 4 1.797 4 4 0 0.766-0.219 1.516-0.641 2.156 2.719 0.641 4.641 3.063 4.641 5.844z"></path>
</symbol>
<symbol id="icon-home" viewBox="0 0 26 28">
<title>home</title>
<path d="M22 15.5v7.5c0 0.547-0.453 1-1 1h-6v-6h-4v6h-6c-0.547 0-1-0.453-1-1v-7.5c0-0.031 0.016-0.063 0.016-0.094l8.984-7.406 8.984 7.406c0.016 0.031 0.016 0.063 0.016 0.094zM25.484 14.422l-0.969 1.156c-0.078 0.094-0.203 0.156-0.328 0.172h-0.047c-0.125 0-0.234-0.031-0.328-0.109l-10.813-9.016-10.813 9.016c-0.109 0.078-0.234 0.125-0.375 0.109-0.125-0.016-0.25-0.078-0.328-0.172l-0.969-1.156c-0.172-0.203-0.141-0.531 0.063-0.703l11.234-9.359c0.656-0.547 1.719-0.547 2.375 0l3.813 3.187v-3.047c0-0.281 0.219-0.5 0.5-0.5h3c0.281 0 0.5 0.219 0.5 0.5v6.375l3.422 2.844c0.203 0.172 0.234 0.5 0.063 0.703z"></path>
</symbol>
<symbol id="icon-clipboard-edit" viewBox="0 0 32 32">
<title>clipboard-edit</title>
<path d="M26.443 13.15l-2.6-2.6-11.292 11.294 2.606 2.606 11.286-11.3zM27.15 12.443l1.729-1.731c0.39-0.39 0.387-1.025-0.005-1.416l-1.18-1.177c-0.393-0.392-1.025-0.395-1.417-0.003l-1.727 1.728 2.599 2.599zM11.904 22.611l-0.64 3.113 3.135-0.617-2.495-2.495zM22 19v9.996c0 1.114-0.894 2.004-1.997 2.004h-15.005c-1.107 0-1.997-0.897-1.997-2.004v-20.993c0-1.114 0.894-2.004 1.997-2.004h1.003c0.003-1.109 0.898-2 2.003-2h0.997c0.001-1.662 1.348-3 3.009-3h0.982c1.659 0 3.008 1.343 3.009 3h0.997c1.108 0 2 0.895 2.003 2v0h1.003c1.107 0 1.997 0.897 1.997 2.004v2.996l3.58-3.58c0.793-0.793 2.051-0.788 2.83-0.010l1.18 1.179c0.776 0.776 0.775 2.046-0.010 2.83l-7.58 7.58zM21 12v-3.997c0-0.554-0.455-1.003-1-1.003h-1c-0.003 1.109-0.898 2-2.003 2h-8.994c-1.108 0-2-0.895-2.003-2h-1c-0.552 0-1 0.439-1 1.003v20.994c0 0.554 0.455 1.003 1 1.003h15c0.552 0 1-0.439 1-1.003v-8.997l-6 6-5 1 1-5 10-10zM10 5h-2.004c-0.55 0-0.996 0.443-0.996 0.999v1.002c0 0.552 0.445 0.999 0.996 0.999h9.009c0.55 0 0.996-0.443 0.996-0.999v-1.002c0-0.552-0.445-0.999-0.996-0.999h-2.004v-1.002c0-1.103-0.894-1.998-2.005-1.998h-0.99c-1.107 0-2.005 0.898-2.005 1.998v1.002zM12.5 5c0.276 0 0.5-0.224 0.5-0.5s-0.224-0.5-0.5-0.5c-0.276 0-0.5 0.224-0.5 0.5s0.224 0.5 0.5 0.5v0 0z"></path>
</symbol>
<symbol id="icon-clipboard-list" viewBox="0 0 32 32">
<title>clipboard-list</title>
<path d="M13 5v-1.002c0-1.1 0.898-1.998 2.005-1.998h0.99c1.111 0 2.005 0.895 2.005 1.998v1.002h2.004c0.551 0 0.996 0.447 0.996 0.999v1.002c0 0.556-0.446 0.999-0.996 0.999h-9.009c-0.551 0-0.996-0.447-0.996-0.999v-1.002c0-0.556 0.446-0.999 0.996-0.999h2.004zM22 6h1.003c1.107 0 1.997 0.897 1.997 2.004v20.993c0 1.114-0.894 2.004-1.997 2.004h-15.005c-1.107 0-1.997-0.897-1.997-2.004v-20.993c0-1.114 0.894-2.004 1.997-2.004h1.003c0 0.002 0 0.003 0 0.005v0.99c0 1.107 0.894 2.005 2.003 2.005h8.994c1.106 0 2.003-0.894 2.003-2.005v-0.99c0-0.002 0-0.003 0-0.005v0 0zM15.5 5c0.276 0 0.5-0.224 0.5-0.5s-0.224-0.5-0.5-0.5c-0.276 0-0.5 0.224-0.5 0.5s0.224 0.5 0.5 0.5v0zM14 14v1h8v-1h-8zM9 13v3h3v-3h-3zM10 14v1h1v-1h-1zM9 18v3h3v-3h-3zM10 19v1h1v-1h-1zM14 19v1h8v-1h-8zM9 23v3h3v-3h-3zM10 24v1h1v-1h-1zM14 24v1h8v-1h-8z"></path>
</symbol>
<symbol id="icon-clipboard-text" viewBox="0 0 32 32">
<title>clipboard-text</title>
<path d="M13 5v-1.002c0-1.1 0.898-1.998 2.005-1.998h0.99c1.111 0 2.005 0.895 2.005 1.998v1.002h2.004c0.551 0 0.996 0.447 0.996 0.999v1.002c0 0.556-0.446 0.999-0.996 0.999h-9.009c-0.551 0-0.996-0.447-0.996-0.999v-1.002c0-0.556 0.446-0.999 0.996-0.999h2.004zM12 4h-0.997c-1.104 0-2 0.891-2.003 2h-1.003c-1.103 0-1.997 0.89-1.997 2.004v20.993c0 1.107 0.891 2.004 1.997 2.004h15.005c1.103 0 1.997-0.89 1.997-2.004v-20.993c0-1.107-0.891-2.004-1.997-2.004h-1.003c-0.003-1.105-0.895-2-2.003-2h-0.997c-0.001-1.657-1.35-3-3.009-3h-0.982c-1.661 0-3.008 1.338-3.009 3v0 0zM22 7h1c0.545 0 1 0.449 1 1.003v20.994c0 0.564-0.448 1.003-1 1.003h-15c-0.545 0-1-0.449-1-1.003v-20.994c0-0.564 0.448-1.003 1-1.003h1c0.003 1.105 0.895 2 2.003 2h8.994c1.104 0 2-0.891 2.003-2v0 0zM15.5 5c0.276 0 0.5-0.224 0.5-0.5s-0.224-0.5-0.5-0.5c-0.276 0-0.5 0.224-0.5 0.5s0.224 0.5 0.5 0.5v0zM9 13v1h13v-1h-13zM9 16v1h13v-1h-13zM9 19v1h13v-1h-13zM9 22v1h13v-1h-13zM9 25v1h13v-1h-13z"></path>
</symbol>
<symbol id="icon-keyboard_arrow_up" viewBox="0 0 24 24">
<title>keyboard_arrow_up</title>
<path d="M7.406 15.422l-1.406-1.406 6-6 6 6-1.406 1.406-4.594-4.594z"></path>
</symbol>
<symbol id="icon-keyboard_arrow_right" viewBox="0 0 24 24">
<title>keyboard_arrow_right</title>
<path d="M8.578 16.594l4.594-4.594-4.594-4.594 1.406-1.406 6 6-6 6z"></path>
</symbol>
<symbol id="icon-keyboard_arrow_left" viewBox="0 0 24 24">
<title>keyboard_arrow_left</title>
<path d="M15.422 16.594l-1.406 1.406-6-6 6-6 1.406 1.406-4.594 4.594z"></path>
</symbol>
<symbol id="icon-keyboard_arrow_down" viewBox="0 0 24 24">
<title>keyboard_arrow_down</title>
<path d="M7.406 8.578l4.594 4.594 4.594-4.594 1.406 1.406-6 6-6-6z"></path>
</symbol>
<symbol id="icon-notifications" viewBox="0 0 24 24">
<title>notifications</title>
<path d="M18 15.984l2.016 2.016v0.984h-16.031v-0.984l2.016-2.016v-4.969q0-2.344 1.195-4.078t3.305-2.25v-0.703q0-0.609 0.422-1.055t1.078-0.445 1.078 0.445 0.422 1.055v0.703q2.109 0.516 3.305 2.25t1.195 4.078v4.969zM12 21.984q-0.844 0-1.43-0.563t-0.586-1.406h4.031q0 0.797-0.609 1.383t-1.406 0.586z"></path>
</symbol>
</defs>
</svg>
